<svg xmlns="http://www.w3.org/2000/svg" width="857.529" height="1000" overflow="visible"><g clip-rule="evenodd" fill-rule="evenodd"><path stroke-miterlimit="2.613" d="M46.506 362.743c.299-.494.616-.98.933-1.457 51.223-79.198 132.024-125.551 208.009-125.551 77.373 0 126.01 42.592 189.967 42.592 62.056 0 99.854-42.654 189.307-42.654 67.586 0 139.244 36.958 190.284 100.864-14.112 7.76-26.843 16.572-38.221 26.257l-740.28-.05h0z" fill="#61bb46" stroke="#61bb46" stroke-width="5.38614593"/><path stroke-miterlimit="2.613" d="M566.87 164.316c32.469-41.876 57.167-101.005 48.216-161.458-53.087 3.654-115.18 37.594-151.447 81.776-32.909 40.137-60.077 99.663-49.5 157.485 57.958 1.81 117.913-32.941 152.73-77.803z" fill="#61bb46" stroke="#61bb46" stroke-width="5.38614593"/><path d="M43.864 361.576C21.804 396.281 6.54 446.023 2.49 489.652l715.652-.018c7.737-47.733 33.466-93.335 74.246-128.005l-748.524-.053h.042z" fill="#fdb827"/><path stroke-miterlimit="2.613" d="M8.99 616.59C2.034 572.028.91 529.067 5.277 489.654l710.076-.018c-6.945 42.742-1.116 87.222 16.451 126.98L8.989 616.59h0z" fill="#f5821f" stroke="#f5821f" stroke-width="5.38614593"/><path stroke-miterlimit="2.613" d="M43.691 743.517C26.924 700.872 15.443 658.04 8.99 616.59l722.816.027c22.377 50.662 63.789 93.703 122.1 115.821-1.733 3.868-3.404 7.567-5.012 11.133l-805.202-.054h0z" fill="#e03a3e" stroke="#e03a3e" stroke-width="5.38614593"/><path stroke-miterlimit="2.613" d="M848.891 743.57c-20.02 44.197-31.625 67.136-59.33 109.48-3.727 5.688-7.579 11.505-11.589 17.376l-667.195.062a1539.337 1539.337 0 01-6.34-9.562c-24.945-38.152-45.14-77.706-60.746-117.41l805.2.053h0z" fill="#963d97" stroke="#963d97" stroke-width="5.38614593"/><path stroke-miterlimit="2.613" d="M777.972 870.426c-40.814 60.038-95.608 126.106-162.096 126.733-64.878.592-81.521-42.397-169.541-41.912-88.02.494-106.396 42.663-171.274 42.053-69.364-.643-123.225-65.529-164.284-126.813l667.195-.061h0z" fill="#009ddc" stroke="#009ddc" stroke-width="5.38614593"/></g></svg>