<svg xmlns="http://www.w3.org/2000/svg" viewBox="0 0 224.826 224.826"><path d="M220.413 45.504c2.979.779 5.546 4.171 3.896 7.884-18.013 39.601-34.697 85.298-59.631 121.141 1.054 3.254-.55 7.7-4.996 7.609-25.942-.367-51.931-.825-77.919-.367-25.667.413-52.068 4.309-77.644 2.292-1.329-.092-2.2-.963-2.567-1.971-1.421-1.421-2.108-3.529-1.008-5.821 13.384-28.005 26.767-55.964 40.151-83.969 4.263-8.938 12.834-38.914 23.559-46.385.321-.963 1.008-1.788 2.063-1.971 49.226-10.129 100.653 3.896 150.246-.321 1.742-.137 2.979.688 3.85 1.879z" fill="#1f80aa"/></svg>
