<svg xmlns="http://www.w3.org/2000/svg" viewBox="0 0 227.656 227.656"><path d="M172.52 4.759c1.467.321 2.704 1.375 2.613 3.392-.504 10.084-1.054 20.213-3.575 30.022.321 2.75-1.375 5.958-4.538 5.546-22.551-2.979-30.755 17.326-33.689 40.197 10.725.642 21.359 1.467 31.718 2.383 1.925.183 2.979 1.513 3.208 2.979.55.367 1.054.917 1.283 1.742 1.833 5.959 1.879 12.65 2.017 18.884.092 4.904.688 10.45-2.613 14.346.413 2.292-.825 4.95-3.896 5.042-11 .137-22.138.321-33.322.413 0 1.1 0 2.2-.046 3.208-.779 29.93.504 59.768.183 89.652-.046 2.338-1.925 3.208-3.621 2.888-.229.137-.458.321-.733.412-5.638 1.788-12.009 1.513-17.875 1.696-5.821.137-11.55.275-17.326-.733-1.421.458-3.163 0-3.483-1.879-5.179-29.609-4.308-60.868-4.171-90.844v-5.638c-9.121-.596-18.196-1.513-27.134-2.796-1.375-.229-2.063-1.146-2.154-2.2-3.3-2.2-2.521-7.975-2.567-11.596-.138-7.792-1.008-16.821 1.237-24.338.229-.779.779-1.283 1.467-1.65.412-.458 1.008-.779 1.833-.871 9.121-1.1 18.517-1.742 28.005-2.063.458-8.617 1.238-17.234 2.567-25.667 6.279-40.243 40.793-64.673 81.54-55.277 1.697.412 2.659 1.512 3.072 2.75z" fill="#0071bc"/></svg>