<svg xmlns="http://www.w3.org/2000/svg" viewBox="0 0 239.04 239.04"><path d="M167.809 36.555c-22.276-.183-44.597-1.054-66.919-.504-25.851.642-46.018 2.2-61.281 22.872-3.988 9.854-6.004 21.359-6.967 33.368-.183 3.163-.367 6.417-.596 9.763-.825 20.396.55 41.435.092 58.118 2.154 10.955 6.371 20.809 14.255 28.326 26.126 24.888 79.294 17.142 114.128 15.767 16.73-6.096 30.663-11.138 38.134-30.251 5.913-15.034 4.95-34.193 5.363-50.326.779-33.186 2.246-78.974-36.209-87.133z" fill="#fff"/><path d="M157.588 48.38c44.505 5.729 31.443 70.219 30.205 101.478-.688 17.188-3.758 30.48-21.496 36.438-23.33 7.838-57.706 5.225-81.494 1.742-15.905-2.292-28.372-7.059-32.772-23.559-6.967-26.08-4.996-61.373-1.971-87.957.092-.504.229-.871.458-1.192.412-39.783 83.923-29.929 107.07-26.95z"/><path d="M176.059 72.627c.092-10.955-13.567-14.438-20.901-7.7-1.971 1.833-2.888 4.629-3.025 7.654.733 3.896 3.071 7.746 6.096 9.946 7.105 4.996 17.738-1.65 17.83-9.9zM155.754 93.94c-15.675-23.742-51.06-26.08-70.081-5.042-12.971 14.346-13.888 38.226-4.125 55.185.55.183 1.054.504 1.513 1.054 15.859 17.692 43.176 24.109 62.794 8.067 17.508-14.346 22.641-39.968 9.899-59.264z" fill="#fff"/><path d="M93.282 126.483c5.546 15.584 25.255 27.959 40.976 18.334 31.763-19.434-5.546-72.235-31.718-48.814-9.258 5.454-12.879 20.258-9.258 30.48z"/></svg>