<svg width="40" height="40" viewBox="0 0 40 40" fill="none" xmlns="http://www.w3.org/2000/svg">
<path d="M28.3333 10H1.66667C0.745 10 0 9.255 0 8.33333C0 7.41167 0.745 6.66667 1.66667 6.66667H28.3333C29.255 6.66667 30 7.41167 30 8.33333C30 9.255 29.255 10 28.3333 10Z" fill="white"/>
<path d="M5 21.6667H1.66667C0.745 21.6667 0 20.9217 0 20C0 19.0783 0.745 18.3333 1.66667 18.3333H5C5.92167 18.3333 6.66667 19.0783 6.66667 20C6.66667 20.9217 5.92167 21.6667 5 21.6667Z" fill="#F94B4B"/>
<path d="M38.3333 21.6667H11.6667C10.745 21.6667 10 20.9217 10 20C10 19.0783 10.745 18.3333 11.6667 18.3333H38.3333C39.255 18.3333 40 19.0783 40 20C40 20.9217 39.255 21.6667 38.3333 21.6667Z" fill="white"/>
<path d="M38.333 33.3333H34.9997C34.078 33.3333 33.333 32.5883 33.333 31.6667C33.333 30.745 34.078 30 34.9997 30H38.333C39.2547 30 39.9997 30.745 39.9997 31.6667C39.9997 32.5883 39.2547 33.3333 38.333 33.3333Z" fill="#F94B4B"/>
<path d="M28.3333 33.3333H1.66667C0.745 33.3333 0 32.5883 0 31.6667C0 30.745 0.745 30 1.66667 30H28.3333C29.255 30 30 30.745 30 31.6667C30 32.5883 29.255 33.3333 28.3333 33.3333Z" fill="white"/>
</svg>
