<svg xmlns="http://www.w3.org/2000/svg" viewBox="0 0 503.2 503.2"><path d="M397.6 208.8c49.6 0 89.6 34.4 89.6 76.8s-40 76.8-89.6 76.8H218.4V143.2c15.2-5.6 31.2-8 48-8 52.8 0 100 27.2 120.8 68.8 1.6 3.2 4 4.8 7.2 4.8h3.2z" fill="#f60"/><path d="M480 315.2c-12.8-29.6-45.6-50.4-84-50.4h-3.2c-3.2 0-6.4-1.6-7.2-4.8-20.8-41.6-68-68.8-120.8-68.8-16 0-31.2 2.4-46.4 7.2v164h179.2c37.6 0 68.8-19.2 82.4-47.2z" fill="#ff7d00"/><g fill="#42210b"><path d="M266.4 135.2c-16.8 0-32.8 2.4-48 8v219.2h179.2c49.6 0 89.6-34.4 89.6-76.8s-40-76.8-89.6-76.8h-3.2c-3.2 0-6.4-1.6-7.2-4.8-20.8-41.6-68-68.8-120.8-68.8zm-64 235.2V137.6c0-3.2 2.4-6.4 4.8-7.2 18.4-7.2 38.4-11.2 59.2-11.2 56.8 0 108 28.8 132.8 73.6 57.6.8 104 41.6 104 92.8s-47.2 92.8-105.6 92.8H210.4c-2.4 0-4-.8-5.6-2.4-1.6-1.6-2.4-3.2-2.4-5.6zM176 147.2V376c0 4-3.2 8-8 8-4 0-8-4-8-8V147.2c0-4.8 4-8 8-8 4.8 0 8 3.2 8 8zM136 177.6v197.6c0 4-3.2 8-8 8-4 0-8-4-8-8V177.6c0-4.8 4-8 8-8 4.8 0 8 4 8 8zM96 160.8V368c0 4-3.2 8-8 8s-8-4-8-8V160.8c0-4.8 3.2-8 8-8s8 3.2 8 8zM56 199.2v148c0 4.8-3.2 8-8 8s-8-3.2-8-8v-148c0-4.8 3.2-8 8-8s8 4 8 8zM16 228.8v100c0 4-3.2 8-8 8s-8-4-8-8v-100c0-4.8 3.2-8 8-8s8 3.2 8 8z"/></g></svg>