<svg width="232" height="233" viewBox="0 0 232 233" fill="none" xmlns="http://www.w3.org/2000/svg">
<path d="M184.355 103.374C147.106 81.2317 85.6659 79.1961 50.1075 89.9985C44.3959 91.7326 38.3582 88.5068 36.6289 82.7907C34.8986 77.0715 38.1181 71.0312 43.8319 69.294C84.6517 56.8922 152.505 59.2872 195.387 84.7662C200.524 87.819 202.207 94.4581 199.163 99.5899C196.116 104.731 189.477 106.427 184.353 103.374H184.355ZM183.134 136.169C180.521 140.414 174.976 141.745 170.741 139.139C139.689 120.032 92.3348 114.497 55.5956 125.659C50.832 127.099 45.7992 124.412 44.3524 119.651C43.6627 117.363 43.9078 114.893 45.034 112.785C46.1601 110.677 48.0755 109.102 50.36 108.405C92.3286 95.6566 144.503 101.831 180.17 123.771C184.405 126.381 185.738 131.934 183.134 136.169ZM168.994 167.664C168.502 168.473 167.856 169.177 167.091 169.736C166.327 170.295 165.46 170.697 164.54 170.92C163.62 171.143 162.666 171.182 161.731 171.035C160.796 170.888 159.899 170.558 159.091 170.063C131.956 153.463 97.8012 149.714 57.5775 158.911C56.6558 159.122 55.7017 159.149 54.7695 158.991C53.8374 158.833 52.9455 158.492 52.1449 157.989C51.3442 157.485 50.6505 156.829 50.1033 156.057C49.5561 155.286 49.1661 154.414 48.9557 153.491C48.7438 152.568 48.7158 151.612 48.8734 150.679C49.031 149.745 49.3711 148.852 49.8742 148.05C50.3772 147.248 51.0334 146.553 51.8051 146.005C52.5768 145.458 53.4489 145.068 54.3713 144.858C98.389 134.787 136.147 139.121 166.605 157.751C167.412 158.244 168.115 158.892 168.672 159.658C169.229 160.423 169.63 161.291 169.852 162.212C170.074 163.132 170.113 164.088 169.966 165.023C169.819 165.959 169.489 166.856 168.995 167.664H168.994ZM115.998 0.833313C52.1815 0.833313 0.444458 52.618 0.444458 116.498C0.444458 180.384 52.1815 232.167 115.999 232.167C179.82 232.167 231.556 180.384 231.556 116.498C231.556 52.6191 179.821 0.833313 115.999 0.833313" fill="#1ED660"/>
</svg>
