<svg width="423" height="128" viewBox="0 0 423 128" fill="none" xmlns="http://www.w3.org/2000/svg">
<path d="M63.6764 0.670898C28.7008 0.670898 0.346161 29.0248 0.346161 64.0004C0.346161 98.9775 28.7008 127.329 63.6764 127.329C98.6558 127.329 127.007 98.9775 127.007 64.0004C127.007 29.0271 98.6558 0.673923 63.6756 0.673923L63.6764 0.670898ZM92.7192 92.0102C92.449 92.453 92.094 92.8382 91.6747 93.1437C91.2554 93.4492 90.78 93.669 90.2757 93.7905C89.7713 93.912 89.2479 93.9329 88.7355 93.8519C88.2231 93.7709 87.7317 93.5896 87.2894 93.3185C72.4201 84.236 53.7015 82.179 31.657 87.2156C30.6362 87.4477 29.5651 87.265 28.6789 86.7078C27.7928 86.1505 27.1641 85.2641 26.9312 84.2435C26.8152 83.7382 26.8 83.215 26.8865 82.7038C26.973 82.1925 27.1594 81.7034 27.4352 81.2644C27.711 80.8253 28.0707 80.445 28.4937 80.1452C28.9167 79.8453 29.3946 79.6319 29.9002 79.517C54.0244 74.0055 74.7176 76.3786 91.4109 86.5803C93.2713 87.7223 93.8612 90.1498 92.7192 92.0102V92.0102ZM100.471 74.7663C99.0414 77.0895 96.0013 77.823 93.6797 76.3937C76.6566 65.9303 50.7075 62.9 30.5725 69.012C27.9612 69.8008 25.2032 68.3291 24.4106 65.7223C24.0325 64.4691 24.1667 63.117 24.784 61.9626C25.4012 60.8082 26.4511 59.9457 27.7033 59.5642C50.703 52.5856 79.2959 55.966 98.8448 67.979C101.166 69.4083 101.9 72.4484 100.471 74.767V74.7663ZM101.136 56.81C80.7252 44.6866 47.0496 43.5719 27.5619 49.4865C24.4326 50.4356 21.1232 48.669 20.1749 45.5397C19.7189 44.0362 19.8787 42.4132 20.6191 41.0275C21.3595 39.6418 22.62 38.6069 24.1233 38.1504C46.4937 31.3593 83.6821 32.6714 107.182 46.6219C107.851 47.0181 108.436 47.5425 108.903 48.1651C109.37 48.7878 109.709 49.4964 109.902 50.2503C110.094 51.0043 110.136 51.7889 110.025 52.559C109.914 53.3292 109.652 54.0699 109.254 54.7386C107.59 57.5534 103.945 58.4813 101.139 56.81H101.136ZM172.647 59.1332C161.711 56.5256 159.768 54.6955 159.768 50.85C159.768 47.217 163.186 44.7721 168.276 44.7721C173.206 44.7721 178.092 46.6287 183.219 50.4507C183.37 50.5664 183.567 50.6126 183.756 50.5823C183.851 50.5687 183.942 50.5357 184.024 50.4855C184.106 50.4353 184.177 50.3689 184.232 50.2904L189.572 42.7643C189.677 42.615 189.722 42.4312 189.696 42.2503C189.671 42.0693 189.578 41.9048 189.435 41.7902C183.333 36.895 176.466 34.5151 168.434 34.5151C156.629 34.5151 148.379 41.6004 148.379 51.7379C148.379 62.6089 155.495 66.4582 167.792 69.4295C178.251 71.8396 180.02 73.8588 180.02 77.4676C180.02 81.4681 176.451 83.9562 170.703 83.9562C164.321 83.9562 159.11 81.8009 153.287 76.7643C153.142 76.6415 152.955 76.5792 152.765 76.5903C152.568 76.6055 152.395 76.6962 152.274 76.8399L146.284 83.9637C146.035 84.2662 146.065 84.7049 146.352 84.962C153.128 91.0119 161.462 94.2033 170.461 94.2033C183.181 94.2033 191.402 87.2534 191.402 76.492C191.424 67.4118 185.987 62.3828 172.669 59.143L172.647 59.1332ZM220.184 48.3491C214.671 48.3491 210.149 50.5211 206.413 54.9716V49.9622C206.414 49.7728 206.34 49.5908 206.206 49.4562C206.073 49.3217 205.892 49.2455 205.702 49.2445H195.909C195.516 49.2445 195.198 49.5667 195.198 49.9622V105.623C195.198 106.016 195.516 106.341 195.909 106.341H205.702C206.095 106.341 206.413 106.016 206.413 105.623V88.055C210.149 92.2371 214.671 94.2865 220.184 94.2865C230.431 94.2865 240.807 86.3988 240.807 71.3201C240.822 56.2383 230.447 48.3484 220.192 48.3484L220.184 48.3491ZM229.418 71.3201C229.418 78.9952 224.692 84.357 217.916 84.357C211.223 84.357 206.171 78.7532 206.171 71.3201C206.171 63.8862 211.223 58.2839 217.916 58.2839C224.578 58.2832 229.418 63.7644 229.418 71.3193V71.3201ZM267.389 48.3491C254.193 48.3491 243.855 58.51 243.855 71.4842C243.855 84.3192 254.125 94.3697 267.23 94.3697C280.472 94.3697 290.84 84.2435 290.84 71.3201C290.84 58.4405 280.54 48.3506 267.389 48.3506V48.3491ZM267.389 84.4326C260.371 84.4326 255.077 78.791 255.077 71.3163C255.077 63.8075 260.19 58.3588 267.23 58.3588C274.294 58.3588 279.618 63.9981 279.618 71.4804C279.618 78.9876 274.475 84.4326 267.389 84.4326ZM319.018 49.2445H308.242V38.2291C308.242 38.1353 308.224 38.0424 308.188 37.9556C308.153 37.8689 308.101 37.7899 308.035 37.7234C307.969 37.6568 307.89 37.6039 307.804 37.5676C307.717 37.5314 307.624 37.5125 307.531 37.5121H297.737C297.344 37.5121 297.019 37.8343 297.019 38.2291V49.2445H292.315C291.922 49.2445 291.604 49.5667 291.604 49.9622V58.3769C291.604 58.7717 291.922 59.0946 292.315 59.0946H297.019V80.8707C297.019 89.6658 301.397 94.1277 310.041 94.1277C313.55 94.1277 316.462 93.4017 319.207 91.8438C319.434 91.7228 319.57 91.4808 319.57 91.2237V83.2075C319.57 82.9655 319.441 82.731 319.23 82.6025C319.127 82.5366 319.008 82.4991 318.886 82.4938C318.764 82.4885 318.642 82.5156 318.534 82.5722C316.651 83.5175 314.828 83.9562 312.787 83.9562C309.648 83.9562 308.242 82.5269 308.242 79.3355V59.0984H319.018C319.411 59.0984 319.729 58.7762 319.729 58.3807V49.9667C319.732 49.8728 319.716 49.7793 319.682 49.6917C319.648 49.6042 319.597 49.5244 319.531 49.4573C319.465 49.3902 319.386 49.3372 319.3 49.3014C319.213 49.2656 319.12 49.2478 319.026 49.2491L319.018 49.2445ZM356.558 49.2876V47.9347C356.558 43.9546 358.086 42.1797 361.504 42.1797C363.546 42.1797 365.187 42.585 367.024 43.1976C367.251 43.2687 367.486 43.2331 367.667 43.0978C367.759 43.0313 367.834 42.9438 367.886 42.8425C367.937 42.7411 367.963 42.629 367.962 42.5155V34.2648C367.964 34.1107 367.915 33.9603 367.824 33.8362C367.733 33.7122 367.603 33.6213 367.456 33.5774C365.52 33.0004 363.039 32.4082 359.318 32.4082C350.281 32.4082 345.494 37.5008 345.494 47.1301V49.2022H340.79C340.397 49.2022 340.072 49.5243 340.072 49.9191V58.3769C340.072 58.7717 340.397 59.0946 340.79 59.0946H345.494V92.6757C345.494 93.0765 345.819 93.3941 346.213 93.3941H355.998C356.399 93.3941 356.717 93.0765 356.717 92.6757V59.0969H365.86L379.865 92.6757C378.277 96.1998 376.712 96.9031 374.579 96.9031C372.855 96.9031 371.033 96.3888 369.18 95.3679C369.004 95.2793 368.802 95.2604 368.613 95.315C368.424 95.383 368.265 95.5192 368.189 95.7007L364.869 102.983C364.71 103.331 364.846 103.732 365.179 103.913C368.643 105.789 371.766 106.591 375.631 106.591C382.86 106.591 386.861 103.218 390.377 94.1579L407.363 50.2677C407.407 50.1592 407.423 50.0414 407.41 49.9249C407.397 49.8085 407.354 49.6973 407.287 49.6015C407.223 49.5056 407.137 49.4269 407.035 49.3725C406.933 49.3182 406.82 49.2898 406.705 49.2899H396.51C396.2 49.2899 395.928 49.4843 395.83 49.7709L385.386 79.5926L373.952 49.7512C373.9 49.616 373.809 49.4994 373.691 49.4171C373.572 49.3347 373.431 49.2903 373.286 49.2899H356.558V49.2876ZM334.793 49.2445H325C324.607 49.2445 324.281 49.5667 324.281 49.9622V92.6757C324.281 93.0765 324.607 93.3941 325 93.3941H334.793C335.187 93.3941 335.512 93.0765 335.512 92.6757V49.9652C335.512 49.8709 335.493 49.7774 335.457 49.6902C335.421 49.603 335.368 49.5237 335.302 49.457C335.235 49.3903 335.156 49.3375 335.068 49.3015C334.981 49.2656 334.888 49.2472 334.793 49.2475V49.2445ZM329.953 29.7947C326.074 29.7947 322.928 32.9346 322.928 36.8134C322.928 37.7359 323.11 38.6495 323.463 39.5018C323.816 40.3541 324.333 41.1286 324.986 41.7809C325.638 42.4332 326.412 42.9506 327.265 43.3036C328.117 43.6566 329.031 43.8382 329.953 43.8381C333.833 43.8381 336.971 40.6944 336.971 36.8134C336.971 32.9353 333.825 29.7947 329.953 29.7947ZM415.727 62.9787C411.855 62.9787 408.837 59.8667 408.837 56.0878C408.837 52.3088 411.892 49.1613 415.764 49.1613C419.636 49.1613 422.654 52.2725 422.654 56.0485C422.654 59.8274 419.599 62.9787 415.727 62.9787ZM415.764 49.8465C412.233 49.8465 409.563 52.6522 409.563 56.0878C409.563 59.5219 412.218 62.2897 415.727 62.2897C419.258 62.2897 421.928 59.4863 421.928 56.0485C421.928 52.6143 419.273 49.8465 415.764 49.8465V49.8465ZM417.292 56.7571L419.243 59.4856H417.595L415.84 56.9824H414.335V59.4856H412.959V52.2529H416.18C417.867 52.2529 418.971 53.1127 418.971 54.5602C418.978 55.746 418.29 56.4704 417.3 56.7571H417.292ZM416.127 53.4939H414.335V55.7815H416.127C417.02 55.7815 417.557 55.3436 417.557 54.6365C417.557 53.8924 417.02 53.4939 416.127 53.4939V53.4939Z" fill="#1ED760"/>
</svg>
